<svg xmlns="http://www.w3.org/2000/svg" viewBox="0 0 547 500"><title>CORNER</title><rect y="57" width="5" height="2" style="fill:none"/><polygon points="419.65 162.78 418.53 116.2 373.07 163.91 419.65 162.78"/><path d="M295,0A204.88,204.88,0,0,0,500,205" transform="translate(47)" style="fill:none;stroke:#000;stroke-miterlimit:10;stroke-width:12px"/><polygon points="174.35 162.78 175.47 116.2 220.93 163.91 174.35 162.78"/><path d="M205,0A204.88,204.88,0,0,1,0,205" transform="translate(47)" style="fill:none;stroke:#000;stroke-miterlimit:10;stroke-width:12px"/><polygon points="174.35 337.22 175.47 383.8 220.93 336.09 174.35 337.22"/><path d="M205,500A204.88,204.88,0,0,0,0,295" transform="translate(47)" style="fill:none;stroke:#000;stroke-miterlimit:10;stroke-width:12px"/><polygon points="419.65 337.22 418.53 383.8 373.07 336.09 419.65 337.22"/><path d="M295,500A204.88,204.88,0,0,1,500,295" transform="translate(47)" style="fill:none;stroke:#000;stroke-miterlimit:10;stroke-width:12px"/></svg>