<svg xmlns="http://www.w3.org/2000/svg" viewBox="0 0 488.22 488.22"><title>pf-logo2</title><polygon points="173.35 314.38 175.63 316.66 178.01 318.64 180.41 320.82 182.9 322.69 185.49 324.66 187.98 326.52 190.67 328.19 193.37 329.85 196.07 331.5 198.87 332.86 201.66 334.2 204.57 335.65 207.49 336.69 210.49 337.83 213.4 338.87 216.4 339.81 219.51 340.63 222.51 341.36 225.63 341.99 228.85 342.5 231.96 342.92 235.08 343.34 238.19 343.54 241.4 343.64 244.51 343.64 247.63 343.64 250.74 343.44 253.96 343.13 257.06 342.92 260.29 342.41 263.3 341.89 266.41 341.26 269.51 340.43 272.43 339.61 275.54 338.56 278.54 337.63 281.45 336.38 284.25 335.25 287.25 333.89 290.07 332.55 292.87 330.99 295.57 329.54 298.16 327.77 300.86 326.11 303.45 324.15 305.94 322.28 308.32 320.3 310.81 318.23 313.09 316.15 315.38 313.86 317.46 311.58 319.63 309.21 321.6 306.82 323.67 304.33 325.54 301.84 327.3 299.25 328.96 296.55 330.63 293.86 332.18 291.06 333.53 288.24 334.88 285.44 336.34 282.54 337.38 279.64 338.52 276.63 339.44 273.61 340.38 270.61 341.21 267.49 341.94 264.49 342.57 261.38 342.96 258.26 343.39 255.15 343.81 252.04 343.91 248.83 344.11 245.71 344.11 242.6 344.01 239.39 343.8 236.26 343.5 233.05 343.08 229.94 342.65 226.83 342.03 223.72 341.31 220.7 340.59 217.69 339.75 214.59 338.83 211.58 337.69 208.56 336.43 205.66 335.2 202.76 333.95 199.85 332.5 197.15 330.94 194.35 329.38 191.54 327.71 188.86 325.96 186.25 324.09 183.76 322.22 181.27 320.14 178.8 318.08 176.51 315.9 174.13 313.72 171.95 311.33 169.76 309.04 167.69 306.56 165.61 304.07 163.75 301.58 161.88 298.98 160.12 296.29 158.45 293.49 156.9 290.69 155.34 287.99 153.88 285.09 152.65 282.17 151.41 279.27 150.15 276.27 149.02 273.25 148.08 270.15 147.25 267.13 146.53 264.12 145.81 261.01 145.18 257.9 144.76 254.8 144.35 251.57 144.04 248.46 143.84 245.24 143.73 242.12 143.73 239.02 143.94 235.81 144.04 232.69 144.45 229.57 144.87 226.47 145.28 223.36 145.91 220.35 146.63 217.22 147.46 214.22 148.4 211.22 149.33 208.21 150.47 205.31 151.51 202.4 152.95 199.6 154.31 196.79 155.67 193.99 157.22 191.29 158.88 188.59 160.53 186 162.3 183.51 164.17 181.02 166.24 178.64 168.22 176.25 170.38 173.97 172.46 171.68 174.75 169.6 177.03 167.54 179.52 165.57 181.91 163.7 184.4 161.74 186.99 160.07 189.68 158.31 192.28 156.86 194.98 155.3 197.78 153.94 200.58 152.6 203.6 151.45 206.38 150.21 209.3 149.27 212.3 148.24 215.42 147.41 218.32 146.59 221.44 145.96 224.55 145.44 227.56 144.92 230.77 144.72 233.89 144.39 237.1 144.19 240.21 144.19 243.32 144.19 246.44 144.29 249.65 144.51 252.77 144.92 255.87 145.34 258.99 145.85 262.21 146.47 265.32 147.21 268.32 148.03 271.43 148.98 274.45 150.01 277.35 151.15 280.36 152.19 283.26 153.63 286.17 154.99 288.98 156.33 291.76 157.99 294.47 159.65 297.17 161.31 299.86 163.18 302.35 165.16 304.95 167.03 307.44 169.19 309.83 171.17 312.21 173.35 314.38" style="fill:#bcdeff"/><polyline points="481.56 58.06 476.51 63.62 471.45 69.17 466.39 74.99 461.34 80.55 456.41 86.48 451.49 92.16 446.58 98.1 441.77 103.91 436.97 109.98 432.42 116.05 427.75 122.23 423.45 128.53 419.28 134.98 415.13 141.68 411.34 148.5 407.65 155.7 404.5 163.15 401.61 171.11 399.2 179.31 397.18 188.15 395.55 197.12 394.15 206.61 393.01 216.08 391.88 225.55 390.62 235.15 389.23 244.36 387.33 253.32 385.44 262.03 383.03 270.5 380.51 278.6 377.48 286.42 374.45 294 370.8 301.2 367.13 308.14 363.08 314.7 358.78 321.28 354.23 327.34 349.32 333.28 344.26 338.83 338.83 344.26 333.28 349.32 327.33 354.24 321.26 358.79 314.7 363.08 308.14 367.13 301.2 370.8 294 374.45 286.42 377.48 278.58 380.52 270.49 383.04 262.03 385.44 253.32 387.33 244.36 389.23 235.15 390.62 225.54 391.89 216.06 393.03 206.59 394.17 197.12 395.55 188.15 397.18 179.31 399.2 171.11 401.61 163.14 404.52 155.68 407.67 148.5 411.34 141.68 415.13 134.98 419.28 128.53 423.45 122.23 427.75 116.03 432.44 109.97 436.98 103.91 441.77 98.1 446.58 92.16 451.49 86.48 456.41 80.53 461.35 74.97 466.4 69.17 471.45 63.62 476.51 58.06 481.56" style="fill:none;stroke:#46a4ff;stroke-linejoin:round;stroke-width:18px"/><polyline points="430.15 6.65 424.6 11.71 419.04 16.76 413.22 21.82 407.65 26.87 401.73 31.79 396.05 36.72 390.12 41.64 384.3 46.43 378.24 51.25 372.17 55.8 365.99 60.47 359.67 64.76 353.23 68.92 346.55 73.09 339.72 76.88 332.51 80.55 325.05 83.7 317.11 86.61 308.9 89.01 300.06 91.02 291.09 92.66 281.62 94.07 272.14 95.21 262.67 96.34 253.07 97.6 243.84 98.98 234.89 100.88 226.17 102.77 217.7 105.18 209.62 107.71 201.79 110.73 194.21 113.76 187.02 117.43 180.07 121.08 173.5 125.13 166.93 129.43 160.86 133.98 154.94 138.9 149.38 143.95 143.95 149.38 138.9 154.94 133.96 160.88 129.41 166.94 125.13 173.5 121.08 180.07 117.43 187.02 113.76 194.21 110.73 201.79 107.69 209.64 105.16 217.72 102.77 226.17 100.88 234.89 98.98 243.84 97.6 253.07 96.33 262.69 95.19 272.16 94.06 281.63 92.66 291.09 91.02 300.06 89.01 308.9 86.61 317.11 83.69 325.07 80.53 332.52 76.88 339.72 73.09 346.55 68.92 353.23 64.76 359.67 60.47 365.99 55.78 372.19 51.24 378.25 46.43 384.3 41.64 390.12 36.72 396.05 31.79 401.73 26.85 407.67 21.8 413.23 16.76 419.04 11.71 424.6 6.65 430.15" style="fill:none;stroke:#46a4ff;stroke-linejoin:round;stroke-width:18px"/><path d="M555,0" transform="translate(-5.9 -5.9)" style="fill:none"/></svg>