<svg id="Layer_1" data-name="Layer 1" xmlns="http://www.w3.org/2000/svg" viewBox="0 0 546.5 500.5"><defs><style>.cls-1,.cls-2{fill:none;}.cls-2{stroke:#000;stroke-miterlimit:10;stroke-width:14px;}</style></defs><title>POINT_SOURCE</title><rect id="_Slice_" data-name="&lt;Slice&gt;" class="cls-1" y="57.25" width="5" height="2"/><line class="cls-2" x1="513" y1="250.75" x2="327" y2="250.75"/><polygon points="546.5 250.75 512.5 216.75 512.5 284.75 546.5 250.75"/><line class="cls-2" x1="296.75" y1="33.5" x2="296.75" y2="219.5"/><polygon points="296.75 0 262.75 34 330.75 34 296.75 0"/><line class="cls-2" x1="80.5" y1="250.75" x2="266.5" y2="250.75"/><polygon points="47 250.75 81 284.75 81 216.75 47 250.75"/><line class="cls-2" x1="296.75" y1="467" x2="296.75" y2="281"/><polygon points="296.75 500.5 330.75 466.5 262.75 466.5 296.75 500.5"/><line class="cls-2" x1="449.31" y1="402.56" x2="317.79" y2="271.04"/><polygon points="473 426.25 473 378.17 424.92 426.25 473 426.25"/><line class="cls-2" x1="449.31" y1="97.94" x2="317.79" y2="229.46"/><polygon points="473 74.25 424.92 74.25 473 122.33 473 74.25"/><line class="cls-2" x1="144.69" y1="97.94" x2="276.21" y2="229.46"/><polygon points="121 74.25 121 122.33 169.08 74.25 121 74.25"/><line class="cls-2" x1="144.69" y1="402.56" x2="276.21" y2="271.04"/><polygon points="121 426.25 169.08 426.25 121 378.17 121 426.25"/></svg>