<svg id="Layer_1" data-name="Layer 1" xmlns="http://www.w3.org/2000/svg" viewBox="0 0 548 454"><defs><style>.cls-1,.cls-2,.cls-3{fill:none;}.cls-1,.cls-2{stroke:#000;stroke-miterlimit:10;}.cls-1{stroke-width:14px;}</style></defs><title>UNIFORM</title><line class="cls-1" x1="514" y1="227" x2="46.5" y2="227"/><path class="cls-2" d="M499.5,346.5" transform="translate(47 -23.5)"/><path class="cls-2" d="M-.5,346.5" transform="translate(47 -23.5)"/><line class="cls-1" x1="513" y1="34" x2="46.5" y2="34"/><line class="cls-1" x1="46.5" y1="130" x2="513" y2="130"/><line class="cls-1" x1="514" y1="324" x2="46.5" y2="324"/><line class="cls-1" x1="46.5" y1="420" x2="513" y2="420"/><rect id="_Slice_" data-name="&lt;Slice&gt;" class="cls-3" y="33.5" width="5" height="2"/><polygon points="546.5 34 512.5 0 512.5 68 546.5 34"/><polygon points="547 420 513 386 513 454 547 420"/><polygon points="548 323 514 289 514 357 548 323"/><polygon points="548 227 514 193 514 261 548 227"/><polygon points="547 130 513 96 513 164 547 130"/></svg>